<?xml version="1.0" encoding="UTF-8" standalone="no"?>
<!-- Generator: Adobe Illustrator 19.0.0, SVG Export Plug-In . SVG Version: 6.00 Build 0)  -->

<svg
   xmlns:dc="http://purl.org/dc/elements/1.1/"
   xmlns:cc="http://creativecommons.org/ns#"
   xmlns:rdf="http://www.w3.org/1999/02/22-rdf-syntax-ns#"
   xmlns:svg="http://www.w3.org/2000/svg"
   xmlns="http://www.w3.org/2000/svg"
   xmlns:sodipodi="http://sodipodi.sourceforge.net/DTD/sodipodi-0.dtd"
   xmlns:inkscape="http://www.inkscape.org/namespaces/inkscape"
   version="1.1"
   id="Capa_1"
   x="0px"
   y="0px"
   viewBox="0 0 512 512"
   style="enable-background:new 0 0 512 512;"
   xml:space="preserve"
   sodipodi:docname="add.svg"
   inkscape:version="0.92.4 (5da689c313, 2019-01-14)"><metadata
   id="metadata49"><rdf:RDF><cc:Work
       rdf:about=""><dc:format>image/svg+xml</dc:format><dc:type
         rdf:resource="http://purl.org/dc/dcmitype/StillImage" /></cc:Work></rdf:RDF></metadata><defs
   id="defs47" /><sodipodi:namedview
   pagecolor="#ffffff"
   bordercolor="#666666"
   borderopacity="1"
   objecttolerance="10"
   gridtolerance="10"
   guidetolerance="10"
   inkscape:pageopacity="0"
   inkscape:pageshadow="2"
   inkscape:window-width="1920"
   inkscape:window-height="1137"
   id="namedview45"
   showgrid="false"
   inkscape:zoom="0.4609375"
   inkscape:cx="284.20339"
   inkscape:cy="256"
   inkscape:window-x="-8"
   inkscape:window-y="-8"
   inkscape:window-maximized="1"
   inkscape:current-layer="Capa_1" />
<g
   id="g6"
   style="fill:#ffffff">
	<g
   id="g4"
   style="fill:#ffffff">
		<path
   d="m 367.57,256.909 c -9.839,-4.677 -19.878,-8.706 -30.093,-12.081 C 370.56,219.996 392,180.455 392,136 392,61.01 330.991,0 256,0 181.009,0 120,61.01 120,136 c 0,44.504 21.488,84.084 54.633,108.911 -30.368,9.998 -58.863,25.555 -83.803,46.069 -45.732,37.617 -77.529,90.086 -89.532,147.743 -3.762,18.066 0.745,36.622 12.363,50.908 C 25.222,503.847 42.365,512 60.693,512 H 307 c 11.046,0 20,-8.954 20,-20 0,-11.046 -8.954,-20 -20,-20 H 60.693 c -8.538,0 -13.689,-4.766 -15.999,-7.606 -3.989,-4.905 -5.533,-11.29 -4.236,-17.519 20.755,-99.695 108.691,-172.521 210.24,-174.977 1.759,0.068 3.526,0.102 5.302,0.102 1.793,0 3.578,-0.035 5.354,-0.104 31.12,0.73 61.05,7.832 89.044,21.14 9.977,4.74 21.907,0.499 26.649,-9.478 4.742,-9.976 0.5,-21.907 -9.477,-26.649 z M 260.878,231.877 c -1.623,-0.029 -3.249,-0.044 -4.878,-0.044 -1.614,0 -3.228,0.016 -4.84,0.046 C 200.465,229.35 160,187.312 160,136 c 0,-52.935 43.065,-96 96,-96 52.935,0 96,43.065 96,96 0,51.299 -40.445,93.329 -91.122,95.877 z"
   id="path2"
   inkscape:connector-curvature="0"
   style="fill:#ffffff" />
	</g>
</g>
<g
   id="g12">
	<g
   id="g10">
		<path
   d="m 492,397 h -55 v -55 c 0,-11.046 -8.954,-20 -20,-20 -11.046,0 -20,8.954 -20,20 v 55 h -55 c -11.046,0 -20,8.954 -20,20 0,11.046 8.954,20 20,20 h 55 v 55 c 0,11.046 8.954,20 20,20 11.046,0 20,-8.954 20,-20 v -55 h 55 c 11.046,0 20,-8.954 20,-20 0,-11.046 -8.954,-20 -20,-20 z"
   id="path8"
   inkscape:connector-curvature="0"
   style="fill:#ffffff" />
	</g>
</g>
<g
   id="g14">
</g>
<g
   id="g16">
</g>
<g
   id="g18">
</g>
<g
   id="g20">
</g>
<g
   id="g22">
</g>
<g
   id="g24">
</g>
<g
   id="g26">
</g>
<g
   id="g28">
</g>
<g
   id="g30">
</g>
<g
   id="g32">
</g>
<g
   id="g34">
</g>
<g
   id="g36">
</g>
<g
   id="g38">
</g>
<g
   id="g40">
</g>
<g
   id="g42">
</g>
</svg>