<?xml version="1.0" encoding="UTF-8" standalone="no"?>
<svg
   xmlns:dc="http://purl.org/dc/elements/1.1/"
   xmlns:cc="http://creativecommons.org/ns#"
   xmlns:rdf="http://www.w3.org/1999/02/22-rdf-syntax-ns#"
   xmlns:svg="http://www.w3.org/2000/svg"
   xmlns="http://www.w3.org/2000/svg"
   xmlns:sodipodi="http://sodipodi.sourceforge.net/DTD/sodipodi-0.dtd"
   xmlns:inkscape="http://www.inkscape.org/namespaces/inkscape"
   height="512pt"
   viewBox="0 0 512 512"
   width="512pt"
   version="1.1"
   id="svg4"
   sodipodi:docname="exit.svg"
   inkscape:version="0.92.4 (5da689c313, 2019-01-14)">
  <metadata
     id="metadata10">
    <rdf:RDF>
      <cc:Work
         rdf:about="">
        <dc:format>image/svg+xml</dc:format>
        <dc:type
           rdf:resource="http://purl.org/dc/dcmitype/StillImage" />
      </cc:Work>
    </rdf:RDF>
  </metadata>
  <defs
     id="defs8" />
  <sodipodi:namedview
     pagecolor="#ffffff"
     bordercolor="#666666"
     borderopacity="1"
     objecttolerance="10"
     gridtolerance="10"
     guidetolerance="10"
     inkscape:pageopacity="0"
     inkscape:pageshadow="2"
     inkscape:window-width="1920"
     inkscape:window-height="1137"
     id="namedview6"
     showgrid="false"
     inkscape:zoom="0.34570313"
     inkscape:cx="344.22599"
     inkscape:cy="341.33333"
     inkscape:window-x="-8"
     inkscape:window-y="-8"
     inkscape:window-maximized="1"
     inkscape:current-layer="svg4" />
  <path
     d="m320.820312 371.792969h39.980469v79.957031c0 33.066406-26.902343 59.964844-59.96875 59.964844h-240.867187c-33.0625 0-59.964844-26.898438-59.964844-59.964844v-391.785156c0-33.0625 26.902344-59.964844 59.964844-59.964844h240.867187c33.066407 0 59.96875 26.902344 59.96875 59.964844v79.957031h-39.980469v-79.957031c0-11.019532-8.964843-19.988282-19.988281-19.988282h-240.867187c-11.019532 0-19.988282 8.96875-19.988282 19.988282v391.785156c0 11.019531 8.96875 19.988281 19.988282 19.988281h240.867187c11.023438 0 19.988281-8.96875 19.988281-19.988281zm96.949219-210.167969-28.269531 28.269531 45.972656 45.976563h-258.570312v39.976562h258.570312l-45.972656 45.972656 28.269531 28.269532 94.230469-94.230469zm0 0"
     id="path2"
     style="fill:#ffffff;fill-opacity:1" />
</svg>
