<?xml version="1.0" encoding="UTF-8" standalone="no"?>
<!-- Generator: Adobe Illustrator 18.1.1, SVG Export Plug-In . SVG Version: 6.00 Build 0)  -->

<svg
   xmlns:dc="http://purl.org/dc/elements/1.1/"
   xmlns:cc="http://creativecommons.org/ns#"
   xmlns:rdf="http://www.w3.org/1999/02/22-rdf-syntax-ns#"
   xmlns:svg="http://www.w3.org/2000/svg"
   xmlns="http://www.w3.org/2000/svg"
   xmlns:sodipodi="http://sodipodi.sourceforge.net/DTD/sodipodi-0.dtd"
   xmlns:inkscape="http://www.inkscape.org/namespaces/inkscape"
   version="1.1"
   id="Capa_1"
   x="0px"
   y="0px"
   viewBox="0 0 16.087 16.087"
   style="enable-background:new 0 0 16.087 16.087;"
   xml:space="preserve"
   sodipodi:docname="chat.svg"
   inkscape:version="0.92.4 (5da689c313, 2019-01-14)"><metadata
   id="metadata45"><rdf:RDF><cc:Work
       rdf:about=""><dc:format>image/svg+xml</dc:format><dc:type
         rdf:resource="http://purl.org/dc/dcmitype/StillImage" /></cc:Work></rdf:RDF></metadata><defs
   id="defs43" /><sodipodi:namedview
   pagecolor="#ffffff"
   bordercolor="#666666"
   borderopacity="1"
   objecttolerance="10"
   gridtolerance="10"
   guidetolerance="10"
   inkscape:pageopacity="0"
   inkscape:pageshadow="2"
   inkscape:window-width="688"
   inkscape:window-height="480"
   id="namedview41"
   showgrid="false"
   inkscape:zoom="14.670231"
   inkscape:cx="8.1116652"
   inkscape:cy="8.0434999"
   inkscape:window-x="0"
   inkscape:window-y="0"
   inkscape:window-maximized="0"
   inkscape:current-layer="Capa_1" />
<g
   id="g8"
   style="fill:#ffffff">
	<g
   id="g6"
   style="fill:#ffffff">
		<path
   style="fill:#ffffff"
   d="m 6.5,3.478 c -3.59,0 -6.5,2.238 -6.5,5 0,1.354 0.701,2.585 1.839,3.485 -0.066,0.918 -0.287,2.041 -0.927,2.646 1.274,0 2.576,-0.798 3.399,-1.422 0.684,0.188 1.42,0.291 2.189,0.291 3.59,0 6.5,-2.237 6.5,-5 0,-2.762 -2.91,-5 -6.5,-5 z"
   id="path2"
   inkscape:connector-curvature="0" />
		<path
   style="fill:#ffffff"
   d="M 15.14,8.965 C 15.687,8.234 16,7.384 16,6.478 c 0,-2.762 -2.91,-5 -6.5,-5 -1.58,0 -3.028,0.434 -4.154,1.154 C 5.876,2.532 6.43,2.478 7,2.478 c 3.866,0 7,2.463 7,5.5 0,1.197 -0.485,2.306 -1.312,3.207 0.821,0.624 2.125,1.424 3.399,1.424 -0.906,-0.86 -0.971,-2.766 -0.947,-3.644 z"
   id="path4"
   inkscape:connector-curvature="0" />
	</g>
</g>
<g
   id="g10"
   style="fill:#ffffff">
</g>
<g
   id="g12"
   style="fill:#ffffff">
</g>
<g
   id="g14"
   style="fill:#ffffff">
</g>
<g
   id="g16"
   style="fill:#ffffff">
</g>
<g
   id="g18"
   style="fill:#ffffff">
</g>
<g
   id="g20"
   style="fill:#ffffff">
</g>
<g
   id="g22"
   style="fill:#ffffff">
</g>
<g
   id="g24"
   style="fill:#ffffff">
</g>
<g
   id="g26"
   style="fill:#ffffff">
</g>
<g
   id="g28"
   style="fill:#ffffff">
</g>
<g
   id="g30"
   style="fill:#ffffff">
</g>
<g
   id="g32"
   style="fill:#ffffff">
</g>
<g
   id="g34"
   style="fill:#ffffff">
</g>
<g
   id="g36"
   style="fill:#ffffff">
</g>
<g
   id="g38"
   style="fill:#ffffff">
</g>
</svg>