<?xml version="1.0" encoding="UTF-8" standalone="no"?><svg xmlns="http://www.w3.org/2000/svg" xmlns:xlink="http://www.w3.org/1999/xlink" contentScriptType="application/ecmascript" contentStyleType="text/css" height="421px" preserveAspectRatio="none" style="width:383px;height:421px;" version="1.1" viewBox="0 0 383 421" width="383px" zoomAndPan="magnify"><defs><filter height="300%" id="fyi7o4g" width="300%" x="-1" y="-1"><feGaussianBlur result="blurOut" stdDeviation="2.0"/><feColorMatrix in="blurOut" result="blurOut2" type="matrix" values="0 0 0 0 0 0 0 0 0 0 0 0 0 0 0 0 0 0 .4 0"/><feOffset dx="4.0" dy="4.0" in="blurOut2" result="blurOut3"/><feBlend in="SourceGraphic" in2="blurOut3" mode="normal"/></filter></defs><g><text fill="#000000" font-family="sans-serif" font-size="14" font-weight="bold" lengthAdjust="spacingAndGlyphs" textLength="97" x="145.25" y="24.5332">"Create Chat"</text><rect fill="#FFFFFF" filter="url(#fyi7o4g)" height="122.4063" style="stroke: #000000; stroke-width: 2.0;" width="247.5" x="127" y="166.5703"/><line style="stroke: #A80036; stroke-width: 1.0; stroke-dasharray: 5.0,5.0;" x1="30" x2="30" y1="119.2188" y2="336.3281"/><line style="stroke: #A80036; stroke-width: 1.0; stroke-dasharray: 5.0,5.0;" x1="170" x2="170" y1="119.2188" y2="336.3281"/><line style="stroke: #A80036; stroke-width: 1.0; stroke-dasharray: 5.0,5.0;" x1="341.5" x2="341.5" y1="119.2188" y2="336.3281"/><text fill="#000000" font-family="sans-serif" font-size="14" lengthAdjust="spacingAndGlyphs" textLength="38" x="8" y="116.1426">UserA</text><ellipse cx="30" cy="44.6094" fill="#FEFECE" filter="url(#fyi7o4g)" rx="8" ry="8" style="stroke: #A80036; stroke-width: 2.0;"/><path d="M30,52.6094 L30,79.6094 M17,60.6094 L43,60.6094 M30,79.6094 L17,94.6094 M30,79.6094 L43,94.6094 " fill="#FEFECE" filter="url(#fyi7o4g)" style="stroke: #A80036; stroke-width: 2.0;"/><text fill="#000000" font-family="sans-serif" font-size="14" lengthAdjust="spacingAndGlyphs" textLength="38" x="8" y="349.8613">UserA</text><ellipse cx="30" cy="362.9375" fill="#FEFECE" filter="url(#fyi7o4g)" rx="8" ry="8" style="stroke: #A80036; stroke-width: 2.0;"/><path d="M30,370.9375 L30,397.9375 M17,378.9375 L43,378.9375 M30,397.9375 L17,412.9375 M30,397.9375 L43,412.9375 " fill="#FEFECE" filter="url(#fyi7o4g)" style="stroke: #A80036; stroke-width: 2.0;"/><rect fill="#FEFECE" filter="url(#fyi7o4g)" height="31.6094" style="stroke: #A80036; stroke-width: 1.5;" width="62" x="137" y="82.6094"/><text fill="#000000" font-family="sans-serif" font-size="14" lengthAdjust="spacingAndGlyphs" textLength="48" x="144" y="104.1426">DeChat</text><rect fill="#FEFECE" filter="url(#fyi7o4g)" height="31.6094" style="stroke: #A80036; stroke-width: 1.5;" width="62" x="137" y="335.3281"/><text fill="#000000" font-family="sans-serif" font-size="14" lengthAdjust="spacingAndGlyphs" textLength="48" x="144" y="356.8613">DeChat</text><text fill="#000000" font-family="sans-serif" font-size="14" lengthAdjust="spacingAndGlyphs" textLength="39" x="319.5" y="116.1426">PODA</text><path d="M324,69.6094 C324,59.6094 342,59.6094 342,59.6094 C342,59.6094 360,59.6094 360,69.6094 L360,91.6094 C360,101.6094 342,101.6094 342,101.6094 C342,101.6094 324,101.6094 324,91.6094 L324,69.6094 " fill="#FEFECE" filter="url(#fyi7o4g)" style="stroke: #A80036; stroke-width: 1.5;"/><path d="M324,69.6094 C324,79.6094 342,79.6094 342,79.6094 C342,79.6094 360,79.6094 360,69.6094 " fill="none" style="stroke: #A80036; stroke-width: 1.5;"/><text fill="#000000" font-family="sans-serif" font-size="14" lengthAdjust="spacingAndGlyphs" textLength="39" x="319.5" y="349.8613">PODA</text><path d="M324,362.9375 C324,352.9375 342,352.9375 342,352.9375 C342,352.9375 360,352.9375 360,362.9375 L360,384.9375 C360,394.9375 342,394.9375 342,394.9375 C342,394.9375 324,394.9375 324,384.9375 L324,362.9375 " fill="#FEFECE" filter="url(#fyi7o4g)" style="stroke: #A80036; stroke-width: 1.5;"/><path d="M324,362.9375 C324,372.9375 342,372.9375 342,372.9375 C342,372.9375 360,372.9375 360,362.9375 " fill="none" style="stroke: #A80036; stroke-width: 1.5;"/><polygon fill="#A80036" points="158,147.2188,168,151.2188,158,155.2188,162,151.2188" style="stroke: #A80036; stroke-width: 1.0;"/><line style="stroke: #A80036; stroke-width: 1.0;" x1="30" x2="164" y1="151.2188" y2="151.2188"/><text fill="#000000" font-family="sans-serif" font-size="13" lengthAdjust="spacingAndGlyphs" textLength="56" x="37" y="146.7139">click chat</text><rect fill="none" height="122.4063" style="stroke: #000000; stroke-width: 2.0;" width="247.5" x="127" y="166.5703"/><polygon fill="#EEEEEE" points="127,166.5703,233,166.5703,233,174.5703,223,184.5703,127,184.5703,127,166.5703" style="stroke: #000000; stroke-width: 2.0;"/><text fill="#000000" font-family="sans-serif" font-size="13" font-weight="bold" lengthAdjust="spacingAndGlyphs" textLength="61" x="142" y="181.0654">start_chat</text><polygon fill="#A80036" points="330,202.9219,340,206.9219,330,210.9219,334,206.9219" style="stroke: #A80036; stroke-width: 1.0;"/><line style="stroke: #A80036; stroke-width: 1.0;" x1="170" x2="336" y1="206.9219" y2="206.9219"/><text fill="#000000" font-family="sans-serif" font-size="13" lengthAdjust="spacingAndGlyphs" textLength="122" x="177" y="202.417">checkDeChatFolder()</text><polygon fill="#A80036" points="330,233.2734,340,237.2734,330,241.2734,334,237.2734" style="stroke: #A80036; stroke-width: 1.0;"/><line style="stroke: #A80036; stroke-width: 1.0;" x1="170" x2="336" y1="237.2734" y2="237.2734"/><text fill="#000000" font-family="sans-serif" font-size="13" lengthAdjust="spacingAndGlyphs" textLength="133" x="177" y="232.7686">createFolder("/dechat")</text><line style="stroke: #A80036; stroke-width: 1.0;" x1="170" x2="212" y1="267.9766" y2="267.9766"/><line style="stroke: #A80036; stroke-width: 1.0;" x1="212" x2="212" y1="267.9766" y2="280.9766"/><line style="stroke: #A80036; stroke-width: 1.0;" x1="171" x2="212" y1="280.9766" y2="280.9766"/><polygon fill="#A80036" points="181,276.9766,171,280.9766,181,284.9766,177,280.9766" style="stroke: #A80036; stroke-width: 1.0;"/><text fill="#000000" font-family="sans-serif" font-size="13" lengthAdjust="spacingAndGlyphs" textLength="158" x="177" y="263.1201">checkForNewNotifications()</text><polygon fill="#A80036" points="41,313.9766,31,317.9766,41,321.9766,37,317.9766" style="stroke: #A80036; stroke-width: 1.0;"/><line style="stroke: #A80036; stroke-width: 1.0;" x1="35" x2="169" y1="317.9766" y2="317.9766"/><text fill="#000000" font-family="sans-serif" font-size="13" lengthAdjust="spacingAndGlyphs" textLength="116" x="47" y="313.4717">display chat window</text></g></svg>