<?xml version="1.0" encoding="UTF-8" standalone="no"?><svg xmlns="http://www.w3.org/2000/svg" xmlns:xlink="http://www.w3.org/1999/xlink" contentScriptType="application/ecmascript" contentStyleType="text/css" height="561px" preserveAspectRatio="none" style="width:530px;height:561px;" version="1.1" viewBox="0 0 530 561" width="530px" zoomAndPan="magnify"><defs><filter height="300%" id="fu4wsdq" width="300%" x="-1" y="-1"><feGaussianBlur result="blurOut" stdDeviation="2.0"/><feColorMatrix in="blurOut" result="blurOut2" type="matrix" values="0 0 0 0 0 0 0 0 0 0 0 0 0 0 0 0 0 0 .4 0"/><feOffset dx="4.0" dy="4.0" in="blurOut2" result="blurOut3"/><feBlend in="SourceGraphic" in2="blurOut3" mode="normal"/></filter></defs><g><text fill="#000000" font-family="sans-serif" font-size="14" font-weight="bold" lengthAdjust="spacingAndGlyphs" textLength="139" x="197.75" y="24.5332">"Receive message"</text><rect fill="#FFFFFF" filter="url(#fu4wsdq)" height="168.7578" style="stroke: #000000; stroke-width: 2.0;" width="508.5" x="13" y="136.2188"/><rect fill="#FFFFFF" filter="url(#fu4wsdq)" height="106.0547" style="stroke: #000000; stroke-width: 2.0;" width="488.5" x="23" y="191.9219"/><rect fill="#FFFFFF" filter="url(#fu4wsdq)" height="139.7578" style="stroke: #000000; stroke-width: 2.0;" width="488.5" x="23" y="318.9766"/><line style="stroke: #A80036; stroke-width: 1.0; stroke-dasharray: 5.0,5.0;" x1="55" x2="55" y1="119.2188" y2="475.7344"/><line style="stroke: #A80036; stroke-width: 1.0; stroke-dasharray: 5.0,5.0;" x1="292" x2="292" y1="119.2188" y2="475.7344"/><line style="stroke: #A80036; stroke-width: 1.0; stroke-dasharray: 5.0,5.0;" x1="423.5" x2="423.5" y1="119.2188" y2="475.7344"/><line style="stroke: #A80036; stroke-width: 1.0; stroke-dasharray: 5.0,5.0;" x1="478.5" x2="478.5" y1="119.2188" y2="475.7344"/><text fill="#000000" font-family="sans-serif" font-size="14" lengthAdjust="spacingAndGlyphs" textLength="38" x="33" y="116.1426">UserA</text><ellipse cx="55" cy="44.6094" fill="#FEFECE" filter="url(#fu4wsdq)" rx="8" ry="8" style="stroke: #A80036; stroke-width: 2.0;"/><path d="M55,52.6094 L55,79.6094 M42,60.6094 L68,60.6094 M55,79.6094 L42,94.6094 M55,79.6094 L68,94.6094 " fill="#FEFECE" filter="url(#fu4wsdq)" style="stroke: #A80036; stroke-width: 2.0;"/><text fill="#000000" font-family="sans-serif" font-size="14" lengthAdjust="spacingAndGlyphs" textLength="38" x="33" y="489.2676">UserA</text><ellipse cx="55" cy="502.3438" fill="#FEFECE" filter="url(#fu4wsdq)" rx="8" ry="8" style="stroke: #A80036; stroke-width: 2.0;"/><path d="M55,510.3438 L55,537.3438 M42,518.3438 L68,518.3438 M55,537.3438 L42,552.3438 M55,537.3438 L68,552.3438 " fill="#FEFECE" filter="url(#fu4wsdq)" style="stroke: #A80036; stroke-width: 2.0;"/><rect fill="#FEFECE" filter="url(#fu4wsdq)" height="31.6094" style="stroke: #A80036; stroke-width: 1.5;" width="62" x="259" y="82.6094"/><text fill="#000000" font-family="sans-serif" font-size="14" lengthAdjust="spacingAndGlyphs" textLength="48" x="266" y="104.1426">DeChat</text><rect fill="#FEFECE" filter="url(#fu4wsdq)" height="31.6094" style="stroke: #A80036; stroke-width: 1.5;" width="62" x="259" y="474.7344"/><text fill="#000000" font-family="sans-serif" font-size="14" lengthAdjust="spacingAndGlyphs" textLength="48" x="266" y="496.2676">DeChat</text><text fill="#000000" font-family="sans-serif" font-size="14" lengthAdjust="spacingAndGlyphs" textLength="39" x="401.5" y="116.1426">PODA</text><path d="M406,69.6094 C406,59.6094 424,59.6094 424,59.6094 C424,59.6094 442,59.6094 442,69.6094 L442,91.6094 C442,101.6094 424,101.6094 424,101.6094 C424,101.6094 406,101.6094 406,91.6094 L406,69.6094 " fill="#FEFECE" filter="url(#fu4wsdq)" style="stroke: #A80036; stroke-width: 1.5;"/><path d="M406,69.6094 C406,79.6094 424,79.6094 424,79.6094 C424,79.6094 442,79.6094 442,69.6094 " fill="none" style="stroke: #A80036; stroke-width: 1.5;"/><text fill="#000000" font-family="sans-serif" font-size="14" lengthAdjust="spacingAndGlyphs" textLength="39" x="401.5" y="489.2676">PODA</text><path d="M406,502.3438 C406,492.3438 424,492.3438 424,492.3438 C424,492.3438 442,492.3438 442,502.3438 L442,524.3438 C442,534.3438 424,534.3438 424,534.3438 C424,534.3438 406,534.3438 406,524.3438 L406,502.3438 " fill="#FEFECE" filter="url(#fu4wsdq)" style="stroke: #A80036; stroke-width: 1.5;"/><path d="M406,502.3438 C406,512.3438 424,512.3438 424,512.3438 C424,512.3438 442,512.3438 442,502.3438 " fill="none" style="stroke: #A80036; stroke-width: 1.5;"/><text fill="#000000" font-family="sans-serif" font-size="14" lengthAdjust="spacingAndGlyphs" textLength="39" x="456.5" y="116.1426">PODB</text><path d="M461,69.6094 C461,59.6094 479,59.6094 479,59.6094 C479,59.6094 497,59.6094 497,69.6094 L497,91.6094 C497,101.6094 479,101.6094 479,101.6094 C479,101.6094 461,101.6094 461,91.6094 L461,69.6094 " fill="#FEFECE" filter="url(#fu4wsdq)" style="stroke: #A80036; stroke-width: 1.5;"/><path d="M461,69.6094 C461,79.6094 479,79.6094 479,79.6094 C479,79.6094 497,79.6094 497,69.6094 " fill="none" style="stroke: #A80036; stroke-width: 1.5;"/><text fill="#000000" font-family="sans-serif" font-size="14" lengthAdjust="spacingAndGlyphs" textLength="39" x="456.5" y="489.2676">PODB</text><path d="M461,502.3438 C461,492.3438 479,492.3438 479,492.3438 C479,492.3438 497,492.3438 497,502.3438 L497,524.3438 C497,534.3438 479,534.3438 479,534.3438 C479,534.3438 461,534.3438 461,524.3438 L461,502.3438 " fill="#FEFECE" filter="url(#fu4wsdq)" style="stroke: #A80036; stroke-width: 1.5;"/><path d="M461,502.3438 C461,512.3438 479,512.3438 479,512.3438 C479,512.3438 497,512.3438 497,502.3438 " fill="none" style="stroke: #A80036; stroke-width: 1.5;"/><rect fill="none" height="168.7578" style="stroke: #000000; stroke-width: 2.0;" width="508.5" x="13" y="136.2188"/><polygon fill="#EEEEEE" points="13,136.2188,86,136.2188,86,144.2188,76,154.2188,13,154.2188,13,136.2188" style="stroke: #000000; stroke-width: 2.0;"/><text fill="#000000" font-family="sans-serif" font-size="13" font-weight="bold" lengthAdjust="spacingAndGlyphs" textLength="28" x="28" y="150.7139">loop</text><text fill="#000000" font-family="sans-serif" font-size="11" font-weight="bold" lengthAdjust="spacingAndGlyphs" textLength="76" x="101" y="149.6377">[notifications]</text><polygon fill="#A80036" points="467,172.5703,477,176.5703,467,180.5703,471,176.5703" style="stroke: #A80036; stroke-width: 1.0;"/><line style="stroke: #A80036; stroke-width: 1.0;" x1="292" x2="473" y1="176.5703" y2="176.5703"/><text fill="#000000" font-family="sans-serif" font-size="13" lengthAdjust="spacingAndGlyphs" textLength="133" x="299" y="172.0654">checkForNotifications()</text><rect fill="none" height="106.0547" style="stroke: #000000; stroke-width: 2.0;" width="488.5" x="23" y="191.9219"/><polygon fill="#EEEEEE" points="23,191.9219,84,191.9219,84,199.9219,74,209.9219,23,209.9219,23,191.9219" style="stroke: #000000; stroke-width: 2.0;"/><text fill="#000000" font-family="sans-serif" font-size="13" font-weight="bold" lengthAdjust="spacingAndGlyphs" textLength="16" x="38" y="206.417">alt</text><text fill="#000000" font-family="sans-serif" font-size="11" font-weight="bold" lengthAdjust="spacingAndGlyphs" textLength="106" x="99" y="205.3408">[notification exists]</text><polygon fill="#A80036" points="303,212.2734,293,216.2734,303,220.2734,299,216.2734" style="stroke: #A80036; stroke-width: 1.0;"/><line style="stroke: #A80036; stroke-width: 1.0; stroke-dasharray: 2.0,2.0;" x1="297" x2="478" y1="216.2734" y2="216.2734"/><line style="stroke: #A80036; stroke-width: 1.0;" x1="292" x2="334" y1="246.625" y2="246.625"/><line style="stroke: #A80036; stroke-width: 1.0;" x1="334" x2="334" y1="246.625" y2="259.625"/><line style="stroke: #A80036; stroke-width: 1.0;" x1="293" x2="334" y1="259.625" y2="259.625"/><polygon fill="#A80036" points="303,255.625,293,259.625,303,263.625,299,259.625" style="stroke: #A80036; stroke-width: 1.0;"/><text fill="#000000" font-family="sans-serif" font-size="13" lengthAdjust="spacingAndGlyphs" textLength="118" x="299" y="241.7686">friendWantsToChat()</text><polygon fill="#A80036" points="66,285.625,56,289.625,66,293.625,62,289.625" style="stroke: #A80036; stroke-width: 1.0;"/><line style="stroke: #A80036; stroke-width: 1.0; stroke-dasharray: 2.0,2.0;" x1="60" x2="291" y1="289.625" y2="289.625"/><text fill="#000000" font-family="sans-serif" font-size="13" lengthAdjust="spacingAndGlyphs" textLength="161" x="72" y="285.1201">displays HTML5 Notification</text><rect fill="none" height="139.7578" style="stroke: #000000; stroke-width: 2.0;" width="488.5" x="23" y="318.9766"/><polygon fill="#EEEEEE" points="23,318.9766,96,318.9766,96,326.9766,86,336.9766,23,336.9766,23,318.9766" style="stroke: #000000; stroke-width: 2.0;"/><text fill="#000000" font-family="sans-serif" font-size="13" font-weight="bold" lengthAdjust="spacingAndGlyphs" textLength="28" x="38" y="333.4717">loop</text><text fill="#000000" font-family="sans-serif" font-size="11" font-weight="bold" lengthAdjust="spacingAndGlyphs" textLength="67" x="111" y="332.3955">[messages]</text><polygon fill="#A80036" points="467,355.3281,477,359.3281,467,363.3281,471,359.3281" style="stroke: #A80036; stroke-width: 1.0;"/><line style="stroke: #A80036; stroke-width: 1.0;" x1="292" x2="473" y1="359.3281" y2="359.3281"/><text fill="#000000" font-family="sans-serif" font-size="13" lengthAdjust="spacingAndGlyphs" textLength="147" x="299" y="354.8232">checkForNewMessages()</text><polygon fill="#A80036" points="303,385.6797,293,389.6797,303,393.6797,299,389.6797" style="stroke: #A80036; stroke-width: 1.0;"/><line style="stroke: #A80036; stroke-width: 1.0; stroke-dasharray: 2.0,2.0;" x1="297" x2="478" y1="389.6797" y2="389.6797"/><text fill="#000000" font-family="sans-serif" font-size="13" lengthAdjust="spacingAndGlyphs" textLength="115" x="309" y="385.1748">Partner's messages</text><polygon fill="#A80036" points="303,416.0313,293,420.0313,303,424.0313,299,420.0313" style="stroke: #A80036; stroke-width: 1.0;"/><line style="stroke: #A80036; stroke-width: 1.0; stroke-dasharray: 2.0,2.0;" x1="297" x2="423" y1="420.0313" y2="420.0313"/><text fill="#000000" font-family="sans-serif" font-size="13" lengthAdjust="spacingAndGlyphs" textLength="100" x="309" y="415.5264">User's messages</text><polygon fill="#A80036" points="66,446.3828,56,450.3828,66,454.3828,62,450.3828" style="stroke: #A80036; stroke-width: 1.0;"/><line style="stroke: #A80036; stroke-width: 1.0; stroke-dasharray: 2.0,2.0;" x1="60" x2="291" y1="450.3828" y2="450.3828"/><text fill="#000000" font-family="sans-serif" font-size="13" lengthAdjust="spacingAndGlyphs" textLength="213" x="72" y="445.8779">Updates UI with the messages so far</text></g></svg>