<?xml version="1.0" encoding="UTF-8" standalone="no"?><svg xmlns="http://www.w3.org/2000/svg" xmlns:xlink="http://www.w3.org/1999/xlink" contentScriptType="application/ecmascript" contentStyleType="text/css" height="346px" preserveAspectRatio="none" style="width:354px;height:346px;" version="1.1" viewBox="0 0 354 346" width="354px" zoomAndPan="magnify"><defs><filter height="300%" id="fkq1asr" width="300%" x="-1" y="-1"><feGaussianBlur result="blurOut" stdDeviation="2.0"/><feColorMatrix in="blurOut" result="blurOut2" type="matrix" values="0 0 0 0 0 0 0 0 0 0 0 0 0 0 0 0 0 0 .4 0"/><feOffset dx="4.0" dy="4.0" in="blurOut2" result="blurOut3"/><feBlend in="SourceGraphic" in2="blurOut3" mode="normal"/></filter></defs><g><text fill="#000000" font-family="sans-serif" font-size="14" font-weight="bold" lengthAdjust="spacingAndGlyphs" textLength="117" x="121.25" y="24.5332">"Send message"</text><line style="stroke: #A80036; stroke-width: 1.0; stroke-dasharray: 5.0,5.0;" x1="30" x2="30" y1="119.2188" y2="260.625"/><line style="stroke: #A80036; stroke-width: 1.0; stroke-dasharray: 5.0,5.0;" x1="113" x2="113" y1="119.2188" y2="260.625"/><line style="stroke: #A80036; stroke-width: 1.0; stroke-dasharray: 5.0,5.0;" x1="273.5" x2="273.5" y1="119.2188" y2="260.625"/><line style="stroke: #A80036; stroke-width: 1.0; stroke-dasharray: 5.0,5.0;" x1="328.5" x2="328.5" y1="119.2188" y2="260.625"/><text fill="#000000" font-family="sans-serif" font-size="14" lengthAdjust="spacingAndGlyphs" textLength="38" x="8" y="116.1426">UserA</text><ellipse cx="30" cy="44.6094" fill="#FEFECE" filter="url(#fkq1asr)" rx="8" ry="8" style="stroke: #A80036; stroke-width: 2.0;"/><path d="M30,52.6094 L30,79.6094 M17,60.6094 L43,60.6094 M30,79.6094 L17,94.6094 M30,79.6094 L43,94.6094 " fill="#FEFECE" filter="url(#fkq1asr)" style="stroke: #A80036; stroke-width: 2.0;"/><text fill="#000000" font-family="sans-serif" font-size="14" lengthAdjust="spacingAndGlyphs" textLength="38" x="8" y="274.1582">UserA</text><ellipse cx="30" cy="287.2344" fill="#FEFECE" filter="url(#fkq1asr)" rx="8" ry="8" style="stroke: #A80036; stroke-width: 2.0;"/><path d="M30,295.2344 L30,322.2344 M17,303.2344 L43,303.2344 M30,322.2344 L17,337.2344 M30,322.2344 L43,337.2344 " fill="#FEFECE" filter="url(#fkq1asr)" style="stroke: #A80036; stroke-width: 2.0;"/><rect fill="#FEFECE" filter="url(#fkq1asr)" height="31.6094" style="stroke: #A80036; stroke-width: 1.5;" width="62" x="80" y="82.6094"/><text fill="#000000" font-family="sans-serif" font-size="14" lengthAdjust="spacingAndGlyphs" textLength="48" x="87" y="104.1426">DeChat</text><rect fill="#FEFECE" filter="url(#fkq1asr)" height="31.6094" style="stroke: #A80036; stroke-width: 1.5;" width="62" x="80" y="259.625"/><text fill="#000000" font-family="sans-serif" font-size="14" lengthAdjust="spacingAndGlyphs" textLength="48" x="87" y="281.1582">DeChat</text><text fill="#000000" font-family="sans-serif" font-size="14" lengthAdjust="spacingAndGlyphs" textLength="39" x="251.5" y="116.1426">PODA</text><path d="M256,69.6094 C256,59.6094 274,59.6094 274,59.6094 C274,59.6094 292,59.6094 292,69.6094 L292,91.6094 C292,101.6094 274,101.6094 274,101.6094 C274,101.6094 256,101.6094 256,91.6094 L256,69.6094 " fill="#FEFECE" filter="url(#fkq1asr)" style="stroke: #A80036; stroke-width: 1.5;"/><path d="M256,69.6094 C256,79.6094 274,79.6094 274,79.6094 C274,79.6094 292,79.6094 292,69.6094 " fill="none" style="stroke: #A80036; stroke-width: 1.5;"/><text fill="#000000" font-family="sans-serif" font-size="14" lengthAdjust="spacingAndGlyphs" textLength="39" x="251.5" y="274.1582">PODA</text><path d="M256,287.2344 C256,277.2344 274,277.2344 274,277.2344 C274,277.2344 292,277.2344 292,287.2344 L292,309.2344 C292,319.2344 274,319.2344 274,319.2344 C274,319.2344 256,319.2344 256,309.2344 L256,287.2344 " fill="#FEFECE" filter="url(#fkq1asr)" style="stroke: #A80036; stroke-width: 1.5;"/><path d="M256,287.2344 C256,297.2344 274,297.2344 274,297.2344 C274,297.2344 292,297.2344 292,287.2344 " fill="none" style="stroke: #A80036; stroke-width: 1.5;"/><text fill="#000000" font-family="sans-serif" font-size="14" lengthAdjust="spacingAndGlyphs" textLength="39" x="306.5" y="116.1426">PODB</text><path d="M311,69.6094 C311,59.6094 329,59.6094 329,59.6094 C329,59.6094 347,59.6094 347,69.6094 L347,91.6094 C347,101.6094 329,101.6094 329,101.6094 C329,101.6094 311,101.6094 311,91.6094 L311,69.6094 " fill="#FEFECE" filter="url(#fkq1asr)" style="stroke: #A80036; stroke-width: 1.5;"/><path d="M311,69.6094 C311,79.6094 329,79.6094 329,79.6094 C329,79.6094 347,79.6094 347,69.6094 " fill="none" style="stroke: #A80036; stroke-width: 1.5;"/><text fill="#000000" font-family="sans-serif" font-size="14" lengthAdjust="spacingAndGlyphs" textLength="39" x="306.5" y="274.1582">PODB</text><path d="M311,287.2344 C311,277.2344 329,277.2344 329,277.2344 C329,277.2344 347,277.2344 347,287.2344 L347,309.2344 C347,319.2344 329,319.2344 329,319.2344 C329,319.2344 311,319.2344 311,309.2344 L311,287.2344 " fill="#FEFECE" filter="url(#fkq1asr)" style="stroke: #A80036; stroke-width: 1.5;"/><path d="M311,287.2344 C311,297.2344 329,297.2344 329,297.2344 C329,297.2344 347,297.2344 347,287.2344 " fill="none" style="stroke: #A80036; stroke-width: 1.5;"/><polygon fill="#A80036" points="101,147.2188,111,151.2188,101,155.2188,105,151.2188" style="stroke: #A80036; stroke-width: 1.0;"/><line style="stroke: #A80036; stroke-width: 1.0;" x1="30" x2="107" y1="151.2188" y2="151.2188"/><text fill="#000000" font-family="sans-serif" font-size="13" lengthAdjust="spacingAndGlyphs" textLength="59" x="37" y="146.7139">click send</text><polygon fill="#A80036" points="262,177.5703,272,181.5703,262,185.5703,266,181.5703" style="stroke: #A80036; stroke-width: 1.0;"/><line style="stroke: #A80036; stroke-width: 1.0;" x1="113" x2="268" y1="181.5703" y2="181.5703"/><text fill="#000000" font-family="sans-serif" font-size="13" lengthAdjust="spacingAndGlyphs" textLength="137" x="120" y="177.0654">writeOwnPod(message)</text><polygon fill="#A80036" points="317,207.9219,327,211.9219,317,215.9219,321,211.9219" style="stroke: #A80036; stroke-width: 1.0;"/><line style="stroke: #A80036; stroke-width: 1.0;" x1="113" x2="323" y1="211.9219" y2="211.9219"/><text fill="#000000" font-family="sans-serif" font-size="13" lengthAdjust="spacingAndGlyphs" textLength="128" x="120" y="207.417">writeInbox(notification)</text><polygon fill="#A80036" points="41,238.2734,31,242.2734,41,246.2734,37,242.2734" style="stroke: #A80036; stroke-width: 1.0;"/><line style="stroke: #A80036; stroke-width: 1.0;" x1="35" x2="112" y1="242.2734" y2="242.2734"/><text fill="#000000" font-family="sans-serif" font-size="13" lengthAdjust="spacingAndGlyphs" textLength="55" x="47" y="237.7686">refresh UI</text></g></svg>